<?xml version="1.0" encoding="iso-8859-1"?>
<!-- Uploaded to: SVG Repo, www.svgrepo.com, Generator: SVG Repo Mixer Tools -->
<svg version="1.1" id="Layer_1" xmlns="http://www.w3.org/2000/svg" xmlns:xlink="http://www.w3.org/1999/xlink" 
	 viewBox="0 0 297 297" xml:space="preserve">
<g>
	<g>
		<circle style="fill:#345065;" cx="148.5" cy="148.5" r="148.5"/>
	</g>
	<g>
		<path style="fill:#263D49;" d="M293.714,179.666L184.998,70.95L45,202.223l93.49,94.433c3.309,0.22,6.645,0.343,10.01,0.343
			C219.823,297,279.392,246.715,293.714,179.666z"/>
	</g>
	<g>
		<path style="fill:#9ADAD9;" d="M187,202.223H45V79.193c0-8.1,6.566-14.667,14.667-14.667h112.667
			c8.1,0,14.667,6.566,14.667,14.667v123.03H187z"/>
	</g>
	<g>
		<path style="fill:#0EA6CB;" d="M240.25,148.973l-13.841-27.681c-2.396-4.792-7.294-7.819-12.651-7.819H187v88.75h60.243
			c5.941,0,10.757-4.816,10.757-10.757v-32.004c0-5.793-4.696-10.488-10.488-10.488L240.25,148.973L240.25,148.973z"/>
	</g>
	<g>
		<rect x="45" y="166.724" style="fill:#2980B9;" width="142" height="35.5"/>
	</g>
	<g>
		<polygon style="fill:#FFFFFF;" points="230.03,148.794 196.394,148.794 196.394,120.107 215.687,120.107 		"/>
	</g>
	<g>
		<circle style="fill:#E3E5E4;" cx="80.5" cy="202.224" r="17.75"/>
	</g>
	<g>
		<circle style="fill:#E3E5E4;" cx="222.5" cy="202.224" r="17.75"/>
	</g>
</g>
</svg>