<?xml version="1.0" encoding="iso-8859-1"?>
<!-- Uploaded to: SVG Repo, www.svgrepo.com, Generator: SVG Repo Mixer Tools -->
<svg version="1.1" id="Layer_1" xmlns="http://www.w3.org/2000/svg" xmlns:xlink="http://www.w3.org/1999/xlink" 
	 viewBox="0 0 297 297" xml:space="preserve">
<g>
	<g>
		<circle style="fill:#F4AF30;" cx="148.5" cy="148.5" r="148.5"/>
	</g>
	<g>
		<path style="fill:#C1892F;" d="M297,148.5c0-10.468-1.089-20.68-3.149-30.536l-61.45-60.944L29.177,206.986l86.666,86.403
			C126.352,295.748,137.279,297,148.5,297C230.514,297,297,230.514,297,148.5z"/>
	</g>
	<g>
		<path style="fill:#443B40;" d="M71.157,175.967h154.686c5.245,0,9.496-4.252,9.496-9.496V63.888c0-5.245-4.252-9.496-9.496-9.496
			H71.157c-5.245,0-9.496,4.252-9.496,9.496V166.47C61.661,171.715,65.912,175.967,71.157,175.967z"/>
	</g>
	<g>
		<path style="fill:#FFFFFF;" d="M77.879,165.772h141.242c2.513,0,4.55-2.037,4.55-4.55V69.136c0-2.513-2.037-4.55-4.55-4.55H77.879
			c-2.513,0-4.55,2.037-4.55,4.55v92.086C73.33,163.735,75.366,165.772,77.879,165.772z"/>
	</g>
	<g>
		<polygon style="fill:#595155;" points="26,193.211 271,193.211 236,162.586 61,162.586 		"/>
	</g>
	<g>
		<path style="fill:#352E32;" d="M263.167,208.523H33.834c-4.326,0-7.833-3.507-7.833-7.833v-7.479h245v7.479
			C271,205.016,267.493,208.523,263.167,208.523z"/>
	</g>
	<g>
		<rect x="118.5" y="86.863" style="fill:#FFA800;" width="60" height="53.948"/>
	</g>
	<g>
		<path style="fill:#E67E22;" d="M118.5,140.811v5.364c0,5.273,4.27,9.551,9.543,9.559l40.881,0.068
			c5.286,0.009,9.575-4.274,9.575-9.559v-5.431L118.5,140.811L118.5,140.811z"/>
	</g>
	<g>
		<g>
			<path style="fill:#905835;" d="M158.351,94.033c-1.267,0-2.294-1.027-2.294-2.294v-9.851c0-4.167-3.39-7.557-7.557-7.557
				s-7.557,3.39-7.557,7.557v9.851c0,1.267-1.027,2.294-2.294,2.294c-1.267,0-2.294-1.027-2.294-2.294v-9.851
				c0-6.697,5.448-12.145,12.145-12.145s12.145,5.448,12.145,12.145v9.851C160.645,93.006,159.618,94.033,158.351,94.033z"/>
		</g>
	</g>
</g>
</svg>