<?xml version="1.0" encoding="iso-8859-1"?>
<!-- Uploaded to: SVG Repo, www.svgrepo.com, Generator: SVG Repo Mixer Tools -->
<svg height="800px" width="800px" version="1.1" id="Layer_1" xmlns="http://www.w3.org/2000/svg" xmlns:xlink="http://www.w3.org/1999/xlink" 
	 viewBox="0 0 297 297" xml:space="preserve">
<g>
	<g>
		<circle style="fill:#B8C9F1;" cx="148.5" cy="148.5" r="148.5"/>
	</g>
	<g>
		<path style="fill:#A4B7DD;" d="M297,148.5c0-11.473-1.303-22.641-3.766-33.367L245.281,67.18L56.849,238.481l54.677,53.878
			c11.82,3.029,24.208,4.641,36.974,4.641C230.514,297,297,230.514,297,148.5z"/>
	</g>
	<g>
		<path style="fill:#8E725E;" d="M62.387,240.678h172.227c4.463,0,8.082-3.618,8.082-8.082V89.966H54.305v142.631
			C54.305,237.06,57.923,240.678,62.387,240.678z"/>
	</g>
	<g>
		<path style="fill:#5E4534;" d="M47,114.572h203V77.32c0-7.455-6.043-13.498-13.498-13.498H60.498
			C53.043,63.822,47,69.865,47,77.32V114.572z"/>
	</g>
	<g>
		<path style="fill:#FFFFFF;" d="M133.667,229.771H67.334c-2.669,0-4.834-2.164-4.834-4.833v-20.733
			c0-2.669,2.164-4.833,4.834-4.833h66.333c2.669,0,4.833,2.164,4.833,4.833v20.733C138.5,227.607,136.336,229.771,133.667,229.771z
			"/>
	</g>
	<g>
		<path style="fill:#503B2C;" d="M122.467,151.144h52.065c5.017,0,9.084-4.067,9.084-9.083v-9.926c0-5.017-4.067-9.084-9.084-9.084
			h-52.065c-5.017,0-9.083,4.067-9.083,9.084v9.926C113.384,147.077,117.451,151.144,122.467,151.144z"/>
	</g>
</g>
</svg>